<svg id="google-marketing-platform_svg__logo_x5F_gmp_x5F_192px" xmlns="http://www.w3.org/2000/svg" viewBox="0 0 176 176"><style>.google-marketing-platform_svg__st0{fill:#ea4335}</style><path class="google-marketing-platform_svg__st0" d="M119.1 56.9c17.2 17.2 17.2 45 0 62.2-8.6 8.6-8.6 22.5 0 31.1s22.5 8.6 31.1 0c34.4-34.4 34.4-90.1 0-124.4l-31.1 31.1z"/><linearGradient id="google-marketing-platform_svg__SVGID_1_" gradientUnits="userSpaceOnUse" y1="102.896" x2="156.666" y2="102.896" gradientTransform="matrix(1 0 0 -1 0 178.007)"><stop offset="0" stop-color="#246fdb"/><stop offset=".055" stop-color="#2973df"/><stop offset=".278" stop-color="#377deb"/><stop offset=".549" stop-color="#3f83f2"/><stop offset="1" stop-color="#4285f4"/></linearGradient><path d="M150.2 25.8c-34.4-34.4-90.1-34.4-124.4 0s-34.4 90.1 0 124.5l31.1-31.1c-17.2-17.2-17.2-45 0-62.2 17.2-17.2 45-17.2 62.2 0 8.6 8.6 22.5 8.6 31.1 0 8.6-8.7 8.6-22.6 0-31.2z" fill="url(#google-marketing-platform_svg__SVGID_1_)"/><path d="M150.2 150.2l-31.1-31.1c-17.2 17.2-45 17.2-62.2 0l-31.1 31.1c34.3 34.4 90.1 34.4 124.4 0z" fill="#fbbc04"/><circle transform="rotate(-45.001 134.66 134.675)" class="google-marketing-platform_svg__st0" cx="134.7" cy="134.7" r="22"/><circle transform="rotate(-45.001 41.322 134.675)" cx="41.3" cy="134.7" fill="#34a853" r="22"/></svg>