<svg xmlns="http://www.w3.org/2000/svg" xmlns:xlink="http://www.w3.org/1999/xlink" viewBox="0 0 212.03 71.81" width="80" height="80"><defs><linearGradient id="a" x1="53.96" y1="17.29" x2="39.25" y2="32.46" gradientUnits="userSpaceOnUse"><stop offset=".18" stop-color="#0052cc"/><stop offset="1" stop-color="#2684ff"/></linearGradient><linearGradient id="b" x1="37.83" y1="34.62" x2="20.82" y2="51.16" xlink:href="#a"/></defs><g data-name="Layer 2"><path d="M108.55 7h7.92v40.21c0 10.65-4.66 18-15.58 18a28.14 28.14 0 01-9.5-1.5V56a22.2 22.2 0 008.18 1.5c6.69 0 9-4 9-9.77zm22.35-3.08a4.94 4.94 0 015.28 5.28 5.28 5.28 0 11-10.56 0 4.94 4.94 0 015.28-5.28zM127 20.81h7.57v44H127zm19 0h7.39v7.74c2.55-5.19 7-8.89 15.58-8.36v7.39c-9.68-1-15.58 1.94-15.58 11.26v26H146zm58.46 36.08c-2.82 5.81-8.1 8.8-14.87 8.8-11.7 0-17.6-9.94-17.6-22.88 0-12.41 6.16-22.88 18.48-22.88 6.42 0 11.35 2.9 14 8.62v-7.74H212v44h-7.57zm-12.85 1.76c6.78 0 12.85-4.31 12.85-14.08v-3.52c0-9.77-5.54-14.08-12-14.08-8.54 0-12.94 5.63-12.94 15.84.04 10.56 4.26 15.84 12.1 15.84z" fill="#253858"/><path d="M68.81 0H34.23a15.61 15.61 0 0015.61 15.61h6.37v6.15a15.61 15.61 0 0015.6 15.6V3a3 3 0 00-3-3z" fill="#2684ff"/><path d="M51.7 17.23H17.12a15.61 15.61 0 0015.6 15.6h6.37V39A15.61 15.61 0 0054.7 54.59V20.23a3 3 0 00-3-3z" fill="url(#a)"/><path d="M34.58 34.45H0a15.61 15.61 0 0015.61 15.61H22v6.15a15.61 15.61 0 0015.58 15.6V37.45a3 3 0 00-3-3z" fill="url(#b)"/></g></svg>