<svg data-name="Layer 1" xmlns="http://www.w3.org/2000/svg" width="121.94" height="121.84" viewBox="0 0 121.94 121.84"><path d="M79 7.51a10.88 10.88 0 00-20.7 6.7l28.1 86.4a10.84 10.84 0 0013.2 6.7c5.8-1.7 9.3-7.8 7.4-13.4 0-.2-28-86.4-28-86.4z" fill="#ecb32d"/><path d="M35.53 21.61a10.88 10.88 0 00-20.7 6.7l28.1 86.4a10.84 10.84 0 0013.2 6.7c5.8-1.7 9.3-7.8 7.4-13.4 0-.2-28-86.4-28-86.4z" fill="#63c1a0"/><path d="M114.43 79a10.88 10.88 0 10-6.7-20.7l-86.5 28.2a10.84 10.84 0 00-6.7 13.2c1.7 5.8 7.8 9.3 13.4 7.4.2.01 86.5-28.1 86.5-28.1z" fill="#e01a59"/><path d="M39.23 103.51c5.6-1.8 12.9-4.2 20.7-6.7-1.8-5.6-4.2-12.9-6.7-20.7l-20.7 6.7z" fill="#331433"/><path d="M82.83 89.31c7.8-2.5 15.1-4.9 20.7-6.7-1.8-5.6-4.2-12.9-6.7-20.7l-20.7 6.7z" fill="#d62027"/><path d="M100.23 35.51a10.88 10.88 0 00-6.7-20.7l-86.4 28.1a10.84 10.84 0 00-6.7 13.2c1.7 5.8 7.8 9.3 13.4 7.4.17 0 86.4-28 86.4-28z" fill="#89d3df"/><path d="M25.13 59.91c5.6-1.8 12.9-4.2 20.7-6.7-2.5-7.8-4.9-15.1-6.7-20.7l-20.7 6.7z" fill="#258b74"/><path d="M68.63 45.81c7.8-2.5 15.1-4.9 20.7-6.7-2.5-7.8-4.9-15.1-6.7-20.7l-20.7 6.7z" fill="#819c3c"/></svg>